<svg width="69" height="55" fill="none" xmlns="http://www.w3.org/2000/svg"><g clip-path="url(#a)" fill="#303030"><path d="m39.19 16.73-1.312-.992a1.008 1.008 0 0 0-1.401.14L18.328 36.524l.28.307 4.495-4.106a.679.679 0 0 1-.175-1.168.695.695 0 0 1 .445-.15.685.685 0 0 1 .65.475l5.927-5.444a.514.514 0 0 1 .64 0l.3.218a.504.504 0 0 0 .672-.08l7.747-8.607a.822.822 0 0 0 .119-.98.826.826 0 0 0-.239-.26Z"/><path d="M47.719 22.541a40.663 40.663 0 0 1-13.134 6.1 71.84 71.84 0 0 1-14.284 2.102c.097.704.271 1.396.52 2.063 2.723 2.44 23.224-1.726 27.228-6.546.85-1.001-.33-3.719-.33-3.719ZM23.374 32.727a.686.686 0 0 1-.629-.416.668.668 0 0 1 .148-.735.683.683 0 0 1 1.113.737.664.664 0 0 1-.37.366.675.675 0 0 1-.262.048ZM4.004 21.113l.16-.684 2.603.585c.215.393.348.825.39 1.27.05.47.02.947-.09 1.408a3.715 3.715 0 0 1-.86 1.725 3.436 3.436 0 0 1-1.542.992 3.686 3.686 0 0 1-1.892.07 3.525 3.525 0 0 1-1.672-.873c-.459-.42-.789-.96-.95-1.557a3.715 3.715 0 0 1 0-1.984c.107-.486.3-.949.57-1.368a2.913 2.913 0 0 1 1.001-.922l.36.545c-.345.21-.64.49-.869.822a2.821 2.821 0 0 0-.452 1.102 3.066 3.066 0 0 0 .03 1.557c.135.482.401.918.77 1.26.38.363.856.614 1.372.723.501.14 1.031.14 1.532 0 .48-.157.91-.433 1.251-.803.35-.4.591-.88.7-1.398a3.018 3.018 0 0 0-.12-1.894l-2.292-.576ZM9.67 14.876 7.336 17.96l1.001 1.775-.46.615-3.704-6.694.43-.585 7.538 1.606-.47.615-2.003-.416Zm-.661-.16-4.004-.892 2.002 3.56 2.002-2.667ZM9.009 8.48l.6-.447 3.814 5.058 3.144-2.331.38.506-3.734 2.767L9.01 8.479ZM15.315 4.344l.671-.298 2.643 5.732 3.573-1.606.26.575-4.244 1.914-2.903-6.317ZM28.509 6.625l.15.624-4.825 1.121-1.602-6.763L26.917.526l.14.614-4.004.923.57 2.4 3.524-.823.15.614-3.533.814.6 2.509 4.145-.952ZM35.386 6.873 33.714 4.69c-.186.01-.373.01-.56 0l-1.882.06.07 2.201h-.74L30.371.01 33.033 0a3.185 3.185 0 0 1 2.122.565 2.185 2.185 0 0 1 .82 1.726c.03.49-.1.977-.37 1.388-.287.396-.694.69-1.16.843l1.751 2.321-.81.03Zm-.7-3.263a1.576 1.576 0 0 0 .51-1.3 1.583 1.583 0 0 0-.59-1.268 2.45 2.45 0 0 0-1.572-.407l-1.902.07.12 3.47 1.862-.06a2.417 2.417 0 0 0 1.572-.505ZM40.68 5.028l-.36 2.37-.73-.109.37-2.33L37.888 0l.78.119 1.772 4.225L43.443.843l.701.149-3.463 4.036ZM50.58 4.611l.872 1.121-.38.298-.872-1.15-.55 1.298L49.23 6l.56-1.3-1.441.189v-.476l1.421-.159-.88-1.12.39-.298.77 1.13.54-1.308.431.178-.51 1.33 1.441-.2v.487l-1.371.158ZM53.926 12.605a2.73 2.73 0 0 1-.43-1.2l.59-.258c.044.393.174.772.38 1.11.224.38.515.716.861.992a2.36 2.36 0 0 0 1.301.625 1.1 1.1 0 0 0 .941-.387.89.89 0 0 0 .23-.674 1.813 1.813 0 0 0-.24-.684 10.384 10.384 0 0 0-.61-.883 8.999 8.999 0 0 1-.721-1.09 1.97 1.97 0 0 1-.26-.933c-.001-.368.138-.722.39-.992.218-.261.506-.457.83-.565a2.02 2.02 0 0 1 1.112 0c.468.151.9.394 1.271.714.309.254.581.547.811.873.213.301.372.637.47.991l-.57.298c-.1-.33-.248-.645-.44-.932a3.599 3.599 0 0 0-.671-.685 2.23 2.23 0 0 0-1.291-.605 1.09 1.09 0 0 0-.941.407.851.851 0 0 0-.23.674c.023.25.105.492.24.704.14.229.34.526.61.883.268.338.51.696.721 1.071.166.284.26.604.27.932 0 .368-.139.722-.39.992a1.781 1.781 0 0 1-.841.565 1.939 1.939 0 0 1-1.111 0 3.722 3.722 0 0 1-1.281-.714 4.519 4.519 0 0 1-1.001-1.23ZM63.995 14.053l-1.412-1.984.52-.367 3.254 4.602-.52.367-1.412-1.984-5.225 3.62-.42-.605 5.215-3.65ZM61.753 22.204a3.29 3.29 0 0 1 1-1.547 3.566 3.566 0 0 1 1.643-.823 3.656 3.656 0 0 1 1.882.07 3.567 3.567 0 0 1 1.531.991c.431.492.725 1.087.85 1.726a3.745 3.745 0 0 1 0 1.914 3.388 3.388 0 0 1-1 1.547 3.747 3.747 0 0 1-3.574.773 3.356 3.356 0 0 1-1.531-.991 3.716 3.716 0 0 1-.851-1.716 3.784 3.784 0 0 1 .05-1.944Zm1.311 3.154c.334.377.767.655 1.252.803a3.132 3.132 0 0 0 2.902-.634c.37-.337.643-.765.791-1.24a3.164 3.164 0 0 0-.65-2.916 2.857 2.857 0 0 0-1.292-.803 3.03 3.03 0 0 0-1.541 0c-.51.097-.982.334-1.362.684-.373.338-.646.77-.79 1.25a2.949 2.949 0 0 0 0 1.537c.11.492.347.947.69 1.319ZM60.992 33.718l2.593-.992c0-.178.06-.357.11-.545l.49-1.795-2.122-.546.19-.704 6.767 1.795-.68 2.51a3.14 3.14 0 0 1-1.162 1.844 2.173 2.173 0 0 1-1.902.278 2.176 2.176 0 0 1-1.227-.748 2.14 2.14 0 0 1-.484-1.345l-2.763.992.19-.744Zm3.353.278a1.79 1.79 0 0 0 1.114.863 1.82 1.82 0 0 0 1.399-.199c.442-.351.743-.847.85-1.398l.481-1.785-3.393-.903-.48 1.785a2.37 2.37 0 0 0 .03 1.637ZM57.398 40.105l-.51-.387L59.89 35.8l5.585 4.196-2.902 3.798-.511-.387 2.452-3.203-2.002-1.498-2.192 2.866-.5-.377 2.242-2.866-2.072-1.557-2.593 3.333ZM55.056 48.008l-1.431.08v-.476l1.431-.01-.77-1.18.39-.248.76 1.19.621-1.329.43.228-.68 1.25 1.432-.08v.486h-1.452l.771 1.18-.39.248-.761-1.19-.66 1.29-.421-.239.73-1.2ZM42.042 47.215l1.212.664c.203-.386.486-.725.831-.995s.744-.465 1.17-.571a3.192 3.192 0 0 1 1.232-.13c.36.028.706.151 1.001.358.267.199.463.477.56.793.121.392.1.813-.06 1.19-.25.513-.59.98-1 1.379.33.175.636.392.91.644.19.194.33.428.41.684a1.307 1.307 0 0 1-.26 1.16 1.923 1.923 0 0 1-1.12.764c-.4.151-.842.151-1.242 0a1.25 1.25 0 0 1-.72-.843 1.337 1.337 0 0 1 .07-.991c.23-.451.53-.863.89-1.22l-2.412-1.329a4.678 4.678 0 0 0-.06 1.418h-.61a4.7 4.7 0 0 1 .2-1.725l-1.262-.695.26-.555Zm1.742.992 2.653 1.458c.348-.33.635-.715.85-1.14.11-.288.11-.606 0-.893a1.068 1.068 0 0 0-.7-.744 2.02 2.02 0 0 0-1.281 0c-.34.089-.656.25-.925.473-.27.223-.487.501-.637.816l.04.03Zm3.764 3.967a.887.887 0 0 0 .08-.734 1.218 1.218 0 0 0-.32-.516 4.331 4.331 0 0 0-.831-.545c-.303.297-.57.63-.79.991a.984.984 0 0 0-.08.734.832.832 0 0 0 .44.526c.254.095.536.095.79 0 .272-.072.51-.237.671-.466l.04.01ZM29.84 54.861l.14-6.942h.71l-.11 5.554 2.843-4.622h.35l2.663 4.701.1-5.524h.711l-.13 6.942h-.61l-2.943-5.186-3.113 5.087-.611-.01ZM26.357 47.602c.458.432.785.982.946 1.588.16.605.149 1.244-.035 1.843a3.524 3.524 0 0 1-.951 1.617 3.372 3.372 0 0 1-1.612.872 3.919 3.919 0 0 1-1.942-.06 3.775 3.775 0 0 1-1.682-.902 3.326 3.326 0 0 1-.93-1.567 3.626 3.626 0 0 1 .033-1.877c.175-.612.509-1.168.968-1.613.437-.433.983-.74 1.581-.893a3.889 3.889 0 0 1 1.932.06c.636.16 1.22.48 1.692.932Zm-3.414-.347a2.68 2.68 0 0 0-1.29.714 2.86 2.86 0 0 0-.762 1.319 2.8 2.8 0 0 0 0 1.517c.118.483.372.923.731 1.27a3.08 3.08 0 0 0 1.352.763 3.173 3.173 0 0 0 1.551 0c.49-.12.94-.366 1.301-.714.367-.365.63-.82.761-1.319.14-.5.14-1.027 0-1.527a2.781 2.781 0 0 0-.74-1.27 3.01 3.01 0 0 0-1.362-.753 2.918 2.918 0 0 0-1.542 0ZM15.366 42.643l.27 2.728c.171.072.339.155.5.248l1.632.932 1.101-1.924.65.367-3.503 5.98-2.282-1.3a3.165 3.165 0 0 1-1.502-1.586 2.16 2.16 0 0 1 .22-1.884 2.283 2.283 0 0 1 1.052-.992 2.342 2.342 0 0 1 1.441-.11l-.29-2.915.71.456Zm-1.142 3.134a1.812 1.812 0 0 0-1.124.844 1.772 1.772 0 0 0-.167 1.388c.235.513.642.93 1.151 1.18l1.612.922 1.752-2.975-1.612-.922a2.489 2.489 0 0 0-1.612-.486v.05ZM9.44 37.992l.45-.446 3.453 3.52-5.005 4.84-3.333-3.411.46-.447 2.833 2.886 1.712-1.715-2.483-2.559.48-.456 2.534 2.578 1.861-1.795-2.963-2.995ZM2.002 34.095l.24-1.369.47.07-.27 1.408 1.332-.486.16.436-1.351.457 1.11.932-.32.357-1.07-.992-.25 1.408-.481-.089.28-1.408-1.341.476-.15-.387 1.34-.466-1.11-.922.33-.357 1.081.932Z"/></g><defs><clipPath id="a"><path fill="#fff" d="M0 0h69v55H0z"/></clipPath></defs></svg>